<mxfile host="app.diagrams.net" modified="2023-10-15T13:41:54.478Z" agent="Mozilla/5.0 (Windows NT 10.0; Win64; x64) AppleWebKit/537.36 (KHTML, like Gecko) Chrome/118.0.0.0 Safari/537.36" etag="HLVBLLddFkE_kZjvN4ZD" version="22.0.4" type="github">
  <diagram name="Page-1" id="X77SnsBI9eXH9uYR0j3R">
    <mxGraphModel dx="794" dy="503" grid="1" gridSize="10" guides="1" tooltips="1" connect="1" arrows="1" fold="1" page="1" pageScale="1" pageWidth="850" pageHeight="1100" math="0" shadow="0">
      <root>
        <mxCell id="0" />
        <mxCell id="1" parent="0" />
        <mxCell id="qj9UcY16dSt7OgOoGb9v-1" value="user" style="whiteSpace=wrap;html=1;align=center;" vertex="1" parent="1">
          <mxGeometry x="170" y="270" width="70" height="40" as="geometry" />
        </mxCell>
        <mxCell id="qj9UcY16dSt7OgOoGb9v-2" value="user" style="whiteSpace=wrap;html=1;align=center;" vertex="1" parent="1">
          <mxGeometry x="230" y="440" width="70" height="40" as="geometry" />
        </mxCell>
        <mxCell id="qj9UcY16dSt7OgOoGb9v-3" value="poll" style="whiteSpace=wrap;html=1;align=center;" vertex="1" parent="1">
          <mxGeometry x="290" y="330" width="70" height="40" as="geometry" />
        </mxCell>
        <mxCell id="qj9UcY16dSt7OgOoGb9v-4" value="option" style="whiteSpace=wrap;html=1;align=center;" vertex="1" parent="1">
          <mxGeometry x="450" y="360" width="70" height="40" as="geometry" />
        </mxCell>
        <mxCell id="qj9UcY16dSt7OgOoGb9v-5" value="subject" style="whiteSpace=wrap;html=1;align=center;" vertex="1" parent="1">
          <mxGeometry x="370" y="250" width="70" height="40" as="geometry" />
        </mxCell>
      </root>
    </mxGraphModel>
  </diagram>
</mxfile>
